
<svg width="251px" height="63px" viewBox="0 0 251 63" version="1.1" xmlns="http://www.w3.org/2000/svg" xmlns:xlink="http://www.w3.org/1999/xlink">
    <!-- Generator: Sketch 49 (51002) - http://www.bohemiancoding.com/sketch -->
    <desc>Created with Sketch.</desc>
    <defs></defs>
    <g id="Page-1" stroke="none" stroke-width="1" fill="none" fill-rule="evenodd">
        <g id="logo">
            <g id="Group">
                <path d="M37.2885383,8.01719575 C43.5247128,8.01719575 45.1977866,12.0998341 45.2223906,14.5899404 L41.1438,14.5899404 C41.030243,13.6904724 40.6857866,11.5355362 36.9762564,11.5355362 C35.3637463,11.5355362 33.4313839,12.1301319 33.4313839,13.9745149 C33.4313839,15.5556851 34.7429678,15.9003234 35.5908604,16.1029404 L40.5495182,17.3186426 C42.934125,17.9025049 45.1525982,18.8230003 45.7313155,21.3877747 L45.7313155,9.1759 L59.9902953,9.1759 L59.9902953,12.7150702 L49.9215705,12.7150702 L49.9215705,17.2427085 L58.7392752,17.2427085 L58.7392752,20.7875596 L49.9215705,20.7875596 L49.9215705,29.4376022 L45.7313155,29.4376022 L45.7313155,24.323631 C44.7828058,29.0086218 39.4808886,29.4548341 37.8563235,29.4548341 C30.4278,29.4548341 29.1559611,25.1771532 29.1559611,22.6472809 L33.2345517,22.6472809 C33.2648336,23.7777702 33.8326188,25.9364936 37.542149,25.9364936 C39.5596792,25.9364936 41.7948604,25.4536213 41.7948604,23.3024724 C41.7948604,21.7156213 40.2618403,21.2895575 38.1156121,20.7782809 L35.929639,20.2707915 C34.2053058,19.8680031 32.5137008,19.4724915 31.2938329,18.5439876 C29.9080338,20.1439797 27.8814484,21.093 25.0682859,21.093 C20.7090946,21.093 17.3566525,18.6826298 16.2833207,14.0114135 C16.1008152,19.0003777 12.9318358,21.144317 7.99441611,21.144317 C6.13775839,21.144317 3.37832215,20.6974234 1.57655033,18.6996575 C0.480724832,17.4669128 0.071919463,15.8270404 0,13.8103383 L0,0.399742554 L4.30759731,0.399742554 L4.30759731,13.5073596 C4.30759731,16.3326362 5.93524832,17.5691681 7.9073557,17.5691681 C10.8068457,17.5691681 11.9859463,16.1622107 11.9859463,13.7118702 L11.9859463,0.399742554 L16.291651,0.399742554 L16.291651,7.1351556 C17.4032642,2.39619018 20.8857228,0 25.1269571,0 C31.1322323,0 33.55289,4.11104256 33.7800041,7.08212766 L29.589749,7.08212766 C29.2547557,5.874 28.6131584,3.6149149 25.1534537,3.6149149 C23.1453866,3.6149149 20.1872255,4.95559575 20.1872255,10.6250851 C20.1872255,14.2324256 21.6066886,17.4724043 25.1534537,17.4724043 C27.3029872,17.4724043 28.8600331,16.3357949 29.4668742,14.2051319 C29.4960508,11.9218404 30.7600833,8.01719575 37.2885383,8.01719575 Z" id="UCSF" fill="#051E4C"></path>
                <path d="M82.24,15.028 C81.9413318,13.6093262 81.2833384,12.5453369 80.266,11.836 C79.2486616,11.1266631 78.040007,10.772 76.64,10.772 C75.4453274,10.772 74.4233376,10.9959978 73.574,11.444 C72.7246624,11.8920022 72.0246694,12.4939962 71.474,13.25 C70.9233306,14.0060038 70.5173346,14.8693285 70.256,15.84 C69.9946654,16.8106715 69.864,17.8186614 69.864,18.864 C69.864,20.0026724 69.9946654,21.0806616 70.256,22.098 C70.5173346,23.1153384 70.9233306,24.0019962 71.474,24.758 C72.0246694,25.5140038 72.729329,26.1159978 73.588,26.564 C74.446671,27.0120022 75.4733274,27.236 76.668,27.236 C77.5453377,27.236 78.3246633,27.0913348 79.006,26.802 C79.6873367,26.5126652 80.2753309,26.1113359 80.77,25.598 C81.2646691,25.0846641 81.6519986,24.4733369 81.932,23.764 C82.2120014,23.0546631 82.3799997,22.2893374 82.436,21.468 L85.096,21.468 C84.8346654,23.9880126 83.966674,25.947993 82.492,27.348 C81.017326,28.748007 79.0013461,29.448 76.444,29.448 C74.8946589,29.448 73.5413391,29.1820027 72.384,28.65 C71.2266609,28.1179973 70.2653372,27.385338 69.5,26.452 C68.7346628,25.518662 68.1606686,24.4173397 67.778,23.148 C67.3953314,21.8786603 67.204,20.5160073 67.204,19.06 C67.204,17.6039927 67.4093313,16.2366731 67.82,14.958 C68.2306687,13.6793269 68.8326627,12.5640048 69.626,11.612 C70.4193373,10.6599952 71.4086607,9.90866942 72.594,9.358 C73.7793393,8.80733058 75.1373257,8.532 76.668,8.532 C77.7133386,8.532 78.702662,8.6719986 79.636,8.952 C80.569338,9.2320014 81.3999964,9.64266396 82.128,10.184 C82.8560036,10.725336 83.4626642,11.4019959 83.948,12.214 C84.4333358,13.0260041 84.7506659,13.9639947 84.9,15.028 L82.24,15.028 Z M97.483077,20.376 C97.4457435,19.8159972 97.3197447,19.2840025 97.105077,18.78 C96.8904093,18.2759975 96.6010788,17.8420018 96.237077,17.478 C95.8730752,17.1139982 95.4437461,16.8246677 94.949077,16.61 C94.4544079,16.3953323 93.9084133,16.288 93.311077,16.288 C92.6950739,16.288 92.1397461,16.3953323 91.645077,16.61 C91.1504079,16.8246677 90.7257454,17.1186648 90.371077,17.492 C90.0164086,17.8653352 89.7364114,18.2993309 89.531077,18.794 C89.3257426,19.2886691 89.2044105,19.8159972 89.167077,20.376 L97.483077,20.376 Z M99.779077,24.408 C99.4617421,26.0320081 98.7617491,27.2546626 97.679077,28.076 C96.5964049,28.8973374 95.2337519,29.308 93.591077,29.308 C92.4337379,29.308 91.4304146,29.1213352 90.581077,28.748 C89.7317394,28.3746648 89.0177466,27.8520034 88.439077,27.18 C87.8604074,26.5079966 87.4264118,25.705338 87.137077,24.772 C86.8477422,23.838662 86.6844105,22.8213388 86.647077,21.72 C86.647077,20.6186612 86.8150753,19.6106712 87.151077,18.696 C87.4870787,17.7813288 87.9584073,16.9880034 88.565077,16.316 C89.1717467,15.6439966 89.8904062,15.1213352 90.721077,14.748 C91.5517478,14.3746648 92.4617387,14.188 93.451077,14.188 C94.7390834,14.188 95.8077394,14.4539973 96.657077,14.986 C97.5064146,15.5180027 98.1877411,16.1946626 98.701077,17.016 C99.2144129,17.8373374 99.569076,18.7333285 99.765077,19.704 C99.961078,20.6746715 100.040411,21.5986623 100.003077,22.476 L89.167077,22.476 C89.1484102,23.1106698 89.2230762,23.7126638 89.391077,24.282 C89.5590778,24.8513362 89.8297418,25.3553311 90.203077,25.794 C90.5764122,26.2326689 91.0524074,26.5826654 91.631077,26.844 C92.2097466,27.1053346 92.8910731,27.236 93.675077,27.236 C94.683082,27.236 95.5090738,27.002669 96.153077,26.536 C96.7970802,26.069331 97.2217426,25.3600048 97.427077,24.408 L99.779077,24.408 Z M101.890154,14.524 L104.130154,14.524 L104.130154,16.82 L104.186154,16.82 C105.175492,15.0653246 106.743477,14.188 108.890154,14.188 C109.842159,14.188 110.635484,14.3186654 111.270154,14.58 C111.904824,14.8413346 112.418152,15.205331 112.810154,15.672 C113.202156,16.138669 113.477487,16.6939968 113.636154,17.338 C113.794821,17.9820032 113.874154,18.6959961 113.874154,19.48 L113.874154,29 L111.494154,29 L111.494154,19.2 C111.494154,18.3039955 111.232823,17.5946693 110.710154,17.072 C110.187485,16.5493307 109.468825,16.288 108.554154,16.288 C107.82615,16.288 107.196157,16.3999989 106.664154,16.624 C106.132151,16.8480011 105.688822,17.1653313 105.334154,17.576 C104.979486,17.9866687 104.713488,18.4673306 104.536154,19.018 C104.35882,19.5686694 104.270154,20.1706634 104.270154,20.824 L104.270154,29 L101.890154,29 L101.890154,14.524 Z M120.185231,14.524 L123.069231,14.524 L123.069231,16.624 L120.185231,16.624 L120.185231,25.612 C120.185231,25.8920014 120.208564,26.1159992 120.255231,26.284 C120.301898,26.4520008 120.390564,26.5826662 120.521231,26.676 C120.651898,26.7693338 120.833896,26.8299999 121.067231,26.858 C121.300566,26.8860001 121.603896,26.9 121.977231,26.9 L123.069231,26.9 L123.069231,29 L121.249231,29 C120.633228,29 120.1059,28.9580004 119.667231,28.874 C119.228562,28.7899996 118.873899,28.6360011 118.603231,28.412 C118.332563,28.1879989 118.131898,27.8706687 118.001231,27.46 C117.870564,27.0493313 117.805231,26.5080034 117.805231,25.836 L117.805231,16.624 L115.341231,16.624 L115.341231,14.524 L117.805231,14.524 L117.805231,10.184 L120.185231,10.184 L120.185231,14.524 Z M135.176308,20.376 C135.138974,19.8159972 135.012976,19.2840025 134.798308,18.78 C134.58364,18.2759975 134.29431,17.8420018 133.930308,17.478 C133.566306,17.1139982 133.136977,16.8246677 132.642308,16.61 C132.147639,16.3953323 131.601644,16.288 131.004308,16.288 C130.388305,16.288 129.832977,16.3953323 129.338308,16.61 C128.843639,16.8246677 128.418976,17.1186648 128.064308,17.492 C127.70964,17.8653352 127.429642,18.2993309 127.224308,18.794 C127.018974,19.2886691 126.897642,19.8159972 126.860308,20.376 L135.176308,20.376 Z M137.472308,24.408 C137.154973,26.0320081 136.45498,27.2546626 135.372308,28.076 C134.289636,28.8973374 132.926983,29.308 131.284308,29.308 C130.126969,29.308 129.123646,29.1213352 128.274308,28.748 C127.42497,28.3746648 126.710978,27.8520034 126.132308,27.18 C125.553638,26.5079966 125.119643,25.705338 124.830308,24.772 C124.540973,23.838662 124.377642,22.8213388 124.340308,21.72 C124.340308,20.6186612 124.508306,19.6106712 124.844308,18.696 C125.18031,17.7813288 125.651638,16.9880034 126.258308,16.316 C126.864978,15.6439966 127.583637,15.1213352 128.414308,14.748 C129.244979,14.3746648 130.15497,14.188 131.144308,14.188 C132.432314,14.188 133.50097,14.4539973 134.350308,14.986 C135.199646,15.5180027 135.880972,16.1946626 136.394308,17.016 C136.907644,17.8373374 137.262307,18.7333285 137.458308,19.704 C137.654309,20.6746715 137.733642,21.5986623 137.696308,22.476 L126.860308,22.476 C126.841641,23.1106698 126.916307,23.7126638 127.084308,24.282 C127.252309,24.8513362 127.522973,25.3553311 127.896308,25.794 C128.269643,26.2326689 128.745638,26.5826654 129.324308,26.844 C129.902978,27.1053346 130.584304,27.236 131.368308,27.236 C132.376313,27.236 133.202305,27.002669 133.846308,26.536 C134.490311,26.069331 134.914974,25.3600048 135.120308,24.408 L137.472308,24.408 Z M139.499385,14.524 L141.739385,14.524 L141.739385,17.576 L141.795385,17.576 C142.374055,16.3999941 143.083381,15.5320028 143.923385,14.972 C144.763389,14.4119972 145.827379,14.1506665 147.115385,14.188 L147.115385,16.708 C146.16338,16.708 145.351388,16.8386654 144.679385,17.1 C144.007382,17.3613346 143.466054,17.7439975 143.055385,18.248 C142.644716,18.7520025 142.346053,19.3633297 142.159385,20.082 C141.972717,20.8006703 141.879385,21.626662 141.879385,22.56 L141.879385,29 L139.499385,29 L139.499385,14.524 Z M156.517539,16.624 L154.081539,16.624 L154.081539,14.524 L156.517539,14.524 L156.517539,12.368 C156.517539,11.1919941 156.858202,10.3006697 157.539539,9.694 C158.220876,9.0873303 159.214866,8.784 160.521539,8.784 C160.74554,8.784 161.002204,8.80266648 161.291539,8.84 C161.580874,8.87733352 161.837538,8.93333296 162.061539,9.008 L162.061539,11.08 C161.856205,11.005333 161.632207,10.9540001 161.389539,10.926 C161.146871,10.8979999 160.922873,10.884 160.717539,10.884 C160.138869,10.884 159.690874,10.9959989 159.373539,11.22 C159.056204,11.4440011 158.897539,11.8733302 158.897539,12.508 L158.897539,14.524 L161.697539,14.524 L161.697539,16.624 L158.897539,16.624 L158.897539,29 L156.517539,29 L156.517539,16.624 Z M164.984616,21.776 C164.984616,22.6533377 165.101281,23.4326633 165.334616,24.114 C165.56795,24.7953367 165.889947,25.3646644 166.300616,25.822 C166.711285,26.2793356 167.191947,26.6293321 167.742616,26.872 C168.293285,27.1146679 168.876613,27.236 169.492616,27.236 C170.108619,27.236 170.691947,27.1146679 171.242616,26.872 C171.793285,26.6293321 172.273947,26.2793356 172.684616,25.822 C173.095285,25.3646644 173.417282,24.7953367 173.650616,24.114 C173.88395,23.4326633 174.000616,22.6533377 174.000616,21.776 C174.000616,20.8986623 173.88395,20.1193367 173.650616,19.438 C173.417282,18.7566633 173.095285,18.182669 172.684616,17.716 C172.273947,17.249331 171.793285,16.8946679 171.242616,16.652 C170.691947,16.4093321 170.108619,16.288 169.492616,16.288 C168.876613,16.288 168.293285,16.4093321 167.742616,16.652 C167.191947,16.8946679 166.711285,17.249331 166.300616,17.716 C165.889947,18.182669 165.56795,18.7566633 165.334616,19.438 C165.101281,20.1193367 164.984616,20.8986623 164.984616,21.776 Z M162.464616,21.776 C162.464616,20.7119947 162.613948,19.7180046 162.912616,18.794 C163.211284,17.8699954 163.65928,17.0673367 164.256616,16.386 C164.853952,15.7046633 165.591278,15.168002 166.468616,14.776 C167.345954,14.383998 168.353944,14.188 169.492616,14.188 C170.649955,14.188 171.662612,14.383998 172.530616,14.776 C173.39862,15.168002 174.13128,15.7046633 174.728616,16.386 C175.325952,17.0673367 175.773948,17.8699954 176.072616,18.794 C176.371284,19.7180046 176.520616,20.7119947 176.520616,21.776 C176.520616,22.8400053 176.371284,23.8293288 176.072616,24.744 C175.773948,25.6586712 175.325952,26.4566633 174.728616,27.138 C174.13128,27.8193367 173.39862,28.3513314 172.530616,28.734 C171.662612,29.1166686 170.649955,29.308 169.492616,29.308 C168.353944,29.308 167.345954,29.1166686 166.468616,28.734 C165.591278,28.3513314 164.853952,27.8193367 164.256616,27.138 C163.65928,26.4566633 163.211284,25.6586712 162.912616,24.744 C162.613948,23.8293288 162.464616,22.8400053 162.464616,21.776 Z M178.659693,14.524 L180.899693,14.524 L180.899693,17.576 L180.955693,17.576 C181.534363,16.3999941 182.243689,15.5320028 183.083693,14.972 C183.923697,14.4119972 184.987687,14.1506665 186.275693,14.188 L186.275693,16.708 C185.323688,16.708 184.511696,16.8386654 183.839693,17.1 C183.16769,17.3613346 182.626362,17.7439975 182.215693,18.248 C181.805024,18.7520025 181.506361,19.3633297 181.319693,20.082 C181.133025,20.8006703 181.039693,21.626662 181.039693,22.56 L181.039693,29 L178.659693,29 L178.659693,14.524 Z M68.184,42.008 L70.844,42.008 L70.844,50.604 L81.372,50.604 L81.372,42.008 L84.032,42.008 L84.032,62 L81.372,62 L81.372,52.844 L70.844,52.844 L70.844,62 L68.184,62 L68.184,42.008 Z M87.935077,42.008 L90.595077,42.008 L90.595077,62 L87.935077,62 L87.935077,42.008 Z M102.366154,62 L99.342154,62 L92.314154,42.008 L95.170154,42.008 L100.882154,59.34 L100.938154,59.34 L106.706154,42.008 L109.478154,42.008 L102.366154,62 Z M118.348308,42.008 L121.008308,42.008 L121.008308,62 L118.348308,62 L118.348308,42.008 Z M124.519385,47.524 L126.759385,47.524 L126.759385,49.82 L126.815385,49.82 C127.804723,48.0653246 129.372708,47.188 131.519385,47.188 C132.47139,47.188 133.264715,47.3186654 133.899385,47.58 C134.534055,47.8413346 135.047383,48.205331 135.439385,48.672 C135.831387,49.138669 136.106718,49.6939968 136.265385,50.338 C136.424052,50.9820032 136.503385,51.6959961 136.503385,52.48 L136.503385,62 L134.123385,62 L134.123385,52.2 C134.123385,51.3039955 133.862054,50.5946693 133.339385,50.072 C132.816716,49.5493307 132.098056,49.288 131.183385,49.288 C130.455381,49.288 129.825388,49.3999989 129.293385,49.624 C128.761382,49.8480011 128.318053,50.1653313 127.963385,50.576 C127.608717,50.9866687 127.342719,51.4673306 127.165385,52.018 C126.988051,52.5686694 126.899385,53.1706634 126.899385,53.824 L126.899385,62 L124.519385,62 L124.519385,47.524 Z M140.490462,49.624 L138.054462,49.624 L138.054462,47.524 L140.490462,47.524 L140.490462,45.368 C140.490462,44.1919941 140.831125,43.3006697 141.512462,42.694 C142.193799,42.0873303 143.187789,41.784 144.494462,41.784 C144.718463,41.784 144.975127,41.8026665 145.264462,41.84 C145.553797,41.8773335 145.810461,41.933333 146.034462,42.008 L146.034462,44.08 C145.829128,44.005333 145.60513,43.9540001 145.362462,43.926 C145.119794,43.8979999 144.895796,43.884 144.690462,43.884 C144.111792,43.884 143.663797,43.9959989 143.346462,44.22 C143.029127,44.4440011 142.870462,44.8733302 142.870462,45.508 L142.870462,47.524 L145.670462,47.524 L145.670462,49.624 L142.870462,49.624 L142.870462,62 L140.490462,62 L140.490462,49.624 Z M148.957539,54.776 C148.957539,55.6533377 149.074205,56.4326633 149.307539,57.114 C149.540874,57.7953367 149.86287,58.3646644 150.273539,58.822 C150.684208,59.2793356 151.16487,59.6293321 151.715539,59.872 C152.266208,60.1146679 152.849536,60.236 153.465539,60.236 C154.081542,60.236 154.66487,60.1146679 155.215539,59.872 C155.766208,59.6293321 156.24687,59.2793356 156.657539,58.822 C157.068208,58.3646644 157.390205,57.7953367 157.623539,57.114 C157.856874,56.4326633 157.973539,55.6533377 157.973539,54.776 C157.973539,53.8986623 157.856874,53.1193367 157.623539,52.438 C157.390205,51.7566633 157.068208,51.182669 156.657539,50.716 C156.24687,50.249331 155.766208,49.8946679 155.215539,49.652 C154.66487,49.4093321 154.081542,49.288 153.465539,49.288 C152.849536,49.288 152.266208,49.4093321 151.715539,49.652 C151.16487,49.8946679 150.684208,50.249331 150.273539,50.716 C149.86287,51.182669 149.540874,51.7566633 149.307539,52.438 C149.074205,53.1193367 148.957539,53.8986623 148.957539,54.776 Z M146.437539,54.776 C146.437539,53.7119947 146.586871,52.7180046 146.885539,51.794 C147.184207,50.8699954 147.632203,50.0673367 148.229539,49.386 C148.826875,48.7046633 149.564201,48.168002 150.441539,47.776 C151.318877,47.383998 152.326867,47.188 153.465539,47.188 C154.622878,47.188 155.635535,47.383998 156.503539,47.776 C157.371543,48.168002 158.104203,48.7046633 158.701539,49.386 C159.298875,50.0673367 159.746871,50.8699954 160.045539,51.794 C160.344207,52.7180046 160.493539,53.7119947 160.493539,54.776 C160.493539,55.8400053 160.344207,56.8293288 160.045539,57.744 C159.746871,58.6586712 159.298875,59.4566633 158.701539,60.138 C158.104203,60.8193367 157.371543,61.3513314 156.503539,61.734 C155.635535,62.1166686 154.622878,62.308 153.465539,62.308 C152.326867,62.308 151.318877,62.1166686 150.441539,61.734 C149.564201,61.3513314 148.826875,60.8193367 148.229539,60.138 C147.632203,59.4566633 147.184207,58.6586712 146.885539,57.744 C146.586871,56.8293288 146.437539,55.8400053 146.437539,54.776 Z M162.632616,47.524 L164.872616,47.524 L164.872616,50.576 L164.928616,50.576 C165.507286,49.3999941 166.216612,48.5320028 167.056616,47.972 C167.89662,47.4119972 168.96061,47.1506665 170.248616,47.188 L170.248616,49.708 C169.296611,49.708 168.484619,49.8386654 167.812616,50.1 C167.140613,50.3613346 166.599285,50.7439975 166.188616,51.248 C165.777947,51.7520025 165.479284,52.3633297 165.292616,53.082 C165.105948,53.8006703 165.012616,54.626662 165.012616,55.56 L165.012616,62 L162.632616,62 L162.632616,47.524 Z M171.463693,47.524 L173.703693,47.524 L173.703693,49.652 L173.759693,49.652 C174.842365,48.0093251 176.401016,47.188 178.435693,47.188 C179.331697,47.188 180.143689,47.3746648 180.871693,47.748 C181.599697,48.1213352 182.113025,48.7559955 182.411693,49.652 C182.897029,48.8679961 183.536356,48.2613355 184.329693,47.832 C185.12303,47.4026645 185.995688,47.188 186.947693,47.188 C187.675697,47.188 188.33369,47.2673325 188.921693,47.426 C189.509696,47.5846675 190.013691,47.8319983 190.433693,48.168 C190.853695,48.5040017 191.180359,48.9379973 191.413693,49.47 C191.647027,50.0020027 191.763693,50.6413296 191.763693,51.388 L191.763693,62 L189.383693,62 L189.383693,52.508 C189.383693,52.0599978 189.34636,51.640002 189.271693,51.248 C189.197026,50.855998 189.057027,50.5153348 188.851693,50.226 C188.646359,49.9366652 188.361695,49.7080008 187.997693,49.54 C187.633691,49.3719992 187.162363,49.288 186.583693,49.288 C185.407687,49.288 184.483696,49.6239966 183.811693,50.296 C183.13969,50.9680034 182.803693,51.8639944 182.803693,52.984 L182.803693,62 L180.423693,62 L180.423693,52.508 C180.423693,52.041331 180.381693,51.612002 180.297693,51.22 C180.213693,50.827998 180.069027,50.4873348 179.863693,50.198 C179.658359,49.9086652 179.383028,49.6846675 179.037693,49.526 C178.692358,49.3673325 178.249029,49.288 177.707693,49.288 C177.017023,49.288 176.424362,49.4279986 175.929693,49.708 C175.435024,49.9880014 175.033695,50.323998 174.725693,50.716 C174.417691,51.108002 174.193694,51.5139979 174.053693,51.934 C173.913692,52.3540021 173.843693,52.7039986 173.843693,52.984 L173.843693,62 L171.463693,62 L171.463693,47.524 Z M207.59477,61.944 C207.184101,62.1866679 206.614774,62.308 205.88677,62.308 C205.270767,62.308 204.780772,62.1353351 204.41677,61.79 C204.052768,61.4446649 203.87077,60.8800039 203.87077,60.096 C203.217433,60.8800039 202.456774,61.4446649 201.58877,61.79 C200.720766,62.1353351 199.782775,62.308 198.77477,62.308 C198.121433,62.308 197.500773,62.2333341 196.91277,62.084 C196.324767,61.9346659 195.816105,61.7013349 195.38677,61.384 C194.957435,61.0666651 194.616771,60.6513359 194.36477,60.138 C194.112769,59.6246641 193.98677,59.0040036 193.98677,58.276 C193.98677,57.4546626 194.126769,56.7826693 194.40677,56.26 C194.686771,55.7373307 195.055434,55.3126683 195.51277,54.986 C195.970106,54.6593317 196.492767,54.4120008 197.08077,54.244 C197.668773,54.0759992 198.270767,53.9360006 198.88677,53.824 C199.540107,53.6933327 200.160767,53.5953337 200.74877,53.53 C201.336773,53.4646663 201.854768,53.3713339 202.30277,53.25 C202.750772,53.1286661 203.105435,52.9513345 203.36677,52.718 C203.628105,52.4846655 203.75877,52.1440022 203.75877,51.696 C203.75877,51.1733307 203.660771,50.7533349 203.46477,50.436 C203.268769,50.1186651 203.016772,49.8760008 202.70877,49.708 C202.400768,49.5399992 202.055439,49.4280003 201.67277,49.372 C201.290101,49.3159997 200.912105,49.288 200.53877,49.288 C199.530765,49.288 198.690773,49.4793314 198.01877,49.862 C197.346767,50.2446686 196.98277,50.9679947 196.92677,52.032 L194.54677,52.032 C194.584104,51.1359955 194.770768,50.3800031 195.10677,49.764 C195.442772,49.1479969 195.890767,48.6486686 196.45077,48.266 C197.010773,47.8833314 197.6501,47.6080008 198.36877,47.44 C199.08744,47.2719992 199.857433,47.188 200.67877,47.188 C201.332107,47.188 201.980767,47.2346662 202.62477,47.328 C203.268773,47.4213338 203.852101,47.6126652 204.37477,47.902 C204.897439,48.1913348 205.317435,48.5973307 205.63477,49.12 C205.952105,49.6426693 206.11077,50.3239958 206.11077,51.164 L206.11077,58.612 C206.11077,59.1720028 206.143436,59.5826654 206.20877,59.844 C206.274104,60.1053346 206.493435,60.236 206.86677,60.236 C207.072104,60.236 207.314769,60.1893338 207.59477,60.096 L207.59477,61.944 Z M203.73077,54.524 C203.432102,54.7480011 203.040106,54.9113328 202.55477,55.014 C202.069434,55.1166672 201.560773,55.2006663 201.02877,55.266 C200.496767,55.3313337 199.960106,55.4059996 199.41877,55.49 C198.877434,55.5740004 198.392105,55.7093324 197.96277,55.896 C197.533435,56.0826676 197.183438,56.3486649 196.91277,56.694 C196.642102,57.0393351 196.50677,57.5106637 196.50677,58.108 C196.50677,58.500002 196.586103,58.831332 196.74477,59.102 C196.903437,59.372668 197.108769,59.5919992 197.36077,59.76 C197.612771,59.9280008 197.906768,60.049333 198.24277,60.124 C198.578772,60.198667 198.933435,60.236 199.30677,60.236 C200.090774,60.236 200.762767,60.1286677 201.32277,59.914 C201.882773,59.6993323 202.340102,59.4286683 202.69477,59.102 C203.049438,58.7753317 203.310769,58.4206686 203.47877,58.038 C203.646771,57.6553314 203.73077,57.2960017 203.73077,56.96 L203.73077,54.524 Z M212.533847,47.524 L215.417847,47.524 L215.417847,49.624 L212.533847,49.624 L212.533847,58.612 C212.533847,58.8920014 212.55718,59.1159992 212.603847,59.284 C212.650514,59.4520008 212.73918,59.5826662 212.869847,59.676 C213.000514,59.7693338 213.182513,59.8299999 213.415847,59.858 C213.649181,59.8860001 213.952512,59.9 214.325847,59.9 L215.417847,59.9 L215.417847,62 L213.597847,62 C212.981844,62 212.454516,61.9580004 212.015847,61.874 C211.577178,61.7899996 211.222515,61.6360011 210.951847,61.412 C210.681179,61.1879989 210.480514,60.8706687 210.349847,60.46 C210.21918,60.0493313 210.153847,59.5080034 210.153847,58.836 L210.153847,49.624 L207.689847,49.624 L207.689847,47.524 L210.153847,47.524 L210.153847,43.184 L212.533847,43.184 L212.533847,47.524 Z M219.992924,44.92 L217.612924,44.92 L217.612924,42.008 L219.992924,42.008 L219.992924,44.92 Z M217.612924,47.524 L219.992924,47.524 L219.992924,62 L217.612924,62 L217.612924,47.524 Z M224.848001,54.776 C224.848001,55.6533377 224.964667,56.4326633 225.198001,57.114 C225.431335,57.7953367 225.753332,58.3646644 226.164001,58.822 C226.57467,59.2793356 227.055332,59.6293321 227.606001,59.872 C228.15667,60.1146679 228.739998,60.236 229.356001,60.236 C229.972004,60.236 230.555332,60.1146679 231.106001,59.872 C231.65667,59.6293321 232.137332,59.2793356 232.548001,58.822 C232.95867,58.3646644 233.280666,57.7953367 233.514001,57.114 C233.747336,56.4326633 233.864001,55.6533377 233.864001,54.776 C233.864001,53.8986623 233.747336,53.1193367 233.514001,52.438 C233.280666,51.7566633 232.95867,51.182669 232.548001,50.716 C232.137332,50.249331 231.65667,49.8946679 231.106001,49.652 C230.555332,49.4093321 229.972004,49.288 229.356001,49.288 C228.739998,49.288 228.15667,49.4093321 227.606001,49.652 C227.055332,49.8946679 226.57467,50.249331 226.164001,50.716 C225.753332,51.182669 225.431335,51.7566633 225.198001,52.438 C224.964667,53.1193367 224.848001,53.8986623 224.848001,54.776 Z M222.328001,54.776 C222.328001,53.7119947 222.477333,52.7180046 222.776001,51.794 C223.074669,50.8699954 223.522665,50.0673367 224.120001,49.386 C224.717337,48.7046633 225.454663,48.168002 226.332001,47.776 C227.209339,47.383998 228.217329,47.188 229.356001,47.188 C230.51334,47.188 231.525997,47.383998 232.394001,47.776 C233.262005,48.168002 233.994665,48.7046633 234.592001,49.386 C235.189337,50.0673367 235.637333,50.8699954 235.936001,51.794 C236.234669,52.7180046 236.384001,53.7119947 236.384001,54.776 C236.384001,55.8400053 236.234669,56.8293288 235.936001,57.744 C235.637333,58.6586712 235.189337,59.4566633 234.592001,60.138 C233.994665,60.8193367 233.262005,61.3513314 232.394001,61.734 C231.525997,62.1166686 230.51334,62.308 229.356001,62.308 C228.217329,62.308 227.209339,62.1166686 226.332001,61.734 C225.454663,61.3513314 224.717337,60.8193367 224.120001,60.138 C223.522665,59.4566633 223.074669,58.6586712 222.776001,57.744 C222.477333,56.8293288 222.328001,55.8400053 222.328001,54.776 Z M238.607078,47.524 L240.847078,47.524 L240.847078,49.82 L240.903078,49.82 C241.892416,48.0653246 243.460401,47.188 245.607078,47.188 C246.559083,47.188 247.352408,47.3186654 247.987078,47.58 C248.621748,47.8413346 249.135076,48.205331 249.527078,48.672 C249.91908,49.138669 250.194411,49.6939968 250.353078,50.338 C250.511745,50.9820032 250.591078,51.6959961 250.591078,52.48 L250.591078,62 L248.211078,62 L248.211078,52.2 C248.211078,51.3039955 247.949747,50.5946693 247.427078,50.072 C246.904409,49.5493307 246.185749,49.288 245.271078,49.288 C244.543074,49.288 243.913081,49.3999989 243.381078,49.624 C242.849075,49.8480011 242.405746,50.1653313 242.051078,50.576 C241.69641,50.9866687 241.430412,51.4673306 241.253078,52.018 C241.075744,52.5686694 240.987078,53.1706634 240.987078,53.824 L240.987078,62 L238.607078,62 L238.607078,47.524 Z" id="Center-for-HIV-Infor" fill="#052049"></path>
            </g>
        </g>
    </g>
</svg>